<?xml version="1.0" encoding="UTF-8"?>
<svg version="1.1" xmlns="http://www.w3.org/2000/svg" width="128" height="128">
<path d="M0 0 C2.75654428 1.54546474 5.12540932 3.49760861 7.5625 5.5 C9.07358164 6.69872024 10.58533134 7.89659868 12.09765625 9.09375 C12.89316895 9.73054687 13.68868164 10.36734375 14.50830078 11.0234375 C18.78666531 14.4172881 23.14775117 17.701827 27.5 21 C29.26602347 22.34452886 31.03165058 23.68957849 32.796875 25.03515625 C33.65990234 25.69273926 34.52292969 26.35032227 35.41210938 27.02783203 C39.52590959 30.16285827 43.63901693 33.29878028 47.75 36.4375 C48.47123047 36.98728516 49.19246094 37.53707031 49.93554688 38.10351562 C54.88481445 41.88481445 54.88481445 41.88481445 56 43 C56.125 46 56.125 46 56 49 C55.67 49.33 55.34 49.66 55 50 C44.77 50 34.54 50 24 50 C24 74.09 24 98.18 24 123 C6.18 123 -11.64 123 -30 123 C-30 98.91 -30 74.82 -30 50 C-38.91 50 -47.82 50 -57 50 C-58 49 -58 49 -58.30078125 46.17578125 C-58 43 -58 43 -56.41796875 40.98046875 C-55.68191406 40.38878906 -54.94585937 39.79710937 -54.1875 39.1875 C-53.36378906 38.50945313 -52.54007813 37.83140625 -51.69140625 37.1328125 C-50.80324219 36.42898437 -49.91507813 35.72515625 -49 35 C-47.20804795 33.52117907 -45.41638706 32.04200528 -43.625 30.5625 C-41.75095719 29.04048733 -39.87596812 27.51963898 -38 26 C-36.29072718 24.60531727 -34.58240549 23.20946813 -32.875 21.8125 C-31.98425781 21.08417969 -31.09351562 20.35585938 -30.17578125 19.60546875 C-27.66843148 17.55130412 -25.16764653 15.48927364 -22.66796875 13.42578125 C-21.90822754 12.79889404 -21.14848633 12.17200684 -20.36572266 11.52612305 C-18.85563776 10.27967074 -17.34617517 9.03246402 -15.83740234 7.78442383 C-15.13953613 7.20845459 -14.44166992 6.63248535 -13.72265625 6.0390625 C-13.10140869 5.52553223 -12.48016113 5.01200195 -11.84008789 4.48291016 C-5.21139789 -0.85909105 -5.21139789 -0.85909105 0 0 Z " fill="#FD8003" transform="translate(64,2)"/>
<path d="M0 0 C4.875 2.875 4.875 2.875 6 4 C6.125 7 6.125 7 6 10 C5 11 5 11 2.04077148 11.11352539 C0.74727783 11.10828857 -0.54621582 11.10305176 -1.87890625 11.09765625 C-2.90889992 11.09553383 -2.90889992 11.09553383 -3.95970154 11.09336853 C-6.16067801 11.08775479 -8.36155409 11.07520007 -10.5625 11.0625 C-12.05143083 11.05748676 -13.54036324 11.05292355 -15.02929688 11.04882812 C-18.68623075 11.03778093 -22.34310558 11.02050713 -26 11 C-26 10.67 -26 10.34 -26 10 C-16.43 10 -6.86 10 3 10 C3 9.01 3 8.02 3 7 C2.01 6.67 1.02 6.34 0 6 C0 4.02 0 2.04 0 0 Z " fill="#E68A2D" transform="translate(114,41)"/>
<path d="M0 0 C4.92613171 1.28079425 8.33723604 4.51293672 12.125 7.8125 C11.135 8.1425 10.145 8.4725 9.125 8.8125 C8.135 8.1525 7.145 7.4925 6.125 6.8125 C6.125 6.1525 6.125 5.4925 6.125 4.8125 C4.145 5.1425 2.165 5.4725 0.125 5.8125 C0.125 5.4825 0.125 5.1525 0.125 4.8125 C-3.59236641 4.46349442 -3.59236641 4.46349442 -6.6875 6.3125 C-7.2753125 7.055 -7.2753125 7.055 -7.875 7.8125 C-8.535 7.4825 -9.195 7.1525 -9.875 6.8125 C-6.82098582 3.77655691 -4.20191309 1.18749718 0 0 Z " fill="#F49E45" transform="translate(60.875,1.1875)"/>
<path d="M0 0 C0.66 0.33 1.32 0.66 2 1 C1.54625 1.391875 1.0925 1.78375 0.625 2.1875 C-1.16418199 3.95758994 -1.16418199 3.95758994 -1.9375 6.5625 C-3.22833734 9.52383272 -4.08888072 9.80130383 -7 11 C-7.66 11.556875 -8.32 12.11375 -9 12.6875 C-11 14 -11 14 -13.125 13.58203125 C-14.053125 13.29392578 -14.053125 13.29392578 -15 13 C-10.06664998 8.58191098 -5.12002677 4.20104761 0 0 Z " fill="#F4AE5D" transform="translate(38,18)"/>
<path d="M0 0 C0.66 0.33 1.32 0.66 2 1 C0.6875 3.5 0.6875 3.5 -1 6 C-1.99 6 -2.98 6 -4 6 C-4 6.66 -4 7.32 -4 8 C-4.66 8 -5.32 8 -6 8 C-6 10.31 -6 12.62 -6 15 C-6.99 14.67 -7.98 14.34 -9 14 C-9.28125 11.2734375 -9.28125 11.2734375 -9 8 C-7.03125 5.6640625 -7.03125 5.6640625 -4.5 3.625 C-3.6646875 2.93664063 -2.829375 2.24828125 -1.96875 1.5390625 C-1.3190625 1.03117187 -0.669375 0.52328125 0 0 Z " fill="#F0AB64" transform="translate(15,37)"/>
<path d="M0 0 C4.875 2.875 4.875 2.875 6 4 C6.04080783 5.99958364 6.04254356 8.00045254 6 10 C5.01 10 4.02 10 3 10 C3 9.01 3 8.02 3 7 C2.01 6.67 1.02 6.34 0 6 C0 4.02 0 2.04 0 0 Z " fill="#F39F47" transform="translate(114,41)"/>
<path d="M0 0 C0.66 0.33 1.32 0.66 2 1 C-0.22222392 5.08889201 -1.29408826 6.7411657 -5.75 8.375 C-6.8225 8.58125 -7.895 8.7875 -9 9 C-6.31941902 5.42589203 -3.57410797 2.68058098 0 0 Z " fill="#F3B060" transform="translate(49,9)"/>
<path d="M0 0 C2.31 0.33 4.62 0.66 7 1 C7 1.66 7 2.32 7 3 C3.52674819 4.1577506 0.63932552 4.06866652 -3 4 C-2.01 2.68 -1.02 1.36 0 0 Z " fill="#F6810A" transform="translate(51,9)"/>
<path d="M0 0 C-3.87564767 3.61139896 -3.87564767 3.61139896 -6 5 C-8.375 4.8125 -8.375 4.8125 -10 4 C-4.4 -2.2 -4.4 -2.2 0 0 Z " fill="#F29F45" transform="translate(33,27)"/>
<path d="M0 0 C4.04420651 1.77945087 7.46078487 4.39529673 11 7 C10.01 7.495 10.01 7.495 9 8 C6.96855359 7.06553465 4.96466413 6.06775224 3 5 C3 4.34 3 3.68 3 3 C2.34 3 1.68 3 1 3 C0.67 2.01 0.34 1.02 0 0 Z " fill="#F4B676" transform="translate(90,23)"/>
<path d="M0 0 C1.11375 0.598125 2.2275 1.19625 3.375 1.8125 C4.00148438 2.14894531 4.62796875 2.48539062 5.2734375 2.83203125 C7 4 7 4 9 7 C4.71193127 6.52354792 2.73352513 5.34097516 0 2 C0 1.34 0 0.68 0 0 Z " fill="#F4B068" transform="translate(64,3)"/>
<path d="M0 0 C0.66 0.33 1.32 0.66 2 1 C0.515 3.475 0.515 3.475 -1 6 C-1.99 5.67 -2.98 5.34 -4 5 C-2.68 3.35 -1.36 1.7 0 0 Z " fill="#F3A24A" transform="translate(15,37)"/>
</svg>
